<svg xmlns="http://www.w3.org/2000/svg" viewBox="0 0 64 64" role="img" aria-label="SaaS">
  <defs>
    <linearGradient id="g" x1="0%" y1="0%" x2="100%" y2="100%">
      <stop offset="0%" stop-color="#7ce7ff" />
      <stop offset="100%" stop-color="#5b8dff" />
    </linearGradient>
  </defs>
  <rect width="64" height="64" rx="14" fill="#0d1117" />
  <circle cx="32" cy="32" r="24" fill="url(#g)" opacity="0.2" />
  <path d="M20 36c0 6 4.5 10 12 10 6 0 10-2.6 11.5-7.2l-6.6-1.6C35.9 39.7 34.4 41 32 41c-2.5 0-4-1.3-4-3.3 0-2.6 2.3-3 6.5-3.9 6.3-1.3 9.5-3.9 9.5-9 0-6-4.9-9.8-11.9-9.8-6 0-10.6 2.8-11.9 7.7l6.7 1.7C27.1 21 29 19.7 32 19.7c2.6 0 4.4 1.2 4.4 3.2 0 2.3-2 2.9-6.1 3.8-5.9 1.2-10.3 3.2-10.3 9.3Z" fill="#e5f6ff" />
</svg>
